<mxfile host="app.diagrams.net" modified="2022-04-20T06:29:39.686Z" agent="5.0 (Windows NT 10.0; Win64; x64) AppleWebKit/537.36 (KHTML, like Gecko) Chrome/100.0.4896.88 Safari/537.36" etag="BLZdvUgSad66_OSSF4P8" version="17.1.3" type="github">
  <diagram id="tzKk3144fkNIU-DoCS1w" name="第 1 页">
    <mxGraphModel dx="1422" dy="706" grid="1" gridSize="10" guides="1" tooltips="1" connect="1" arrows="1" fold="1" page="1" pageScale="1" pageWidth="827" pageHeight="1169" math="0" shadow="0">
      <root>
        <mxCell id="0" />
        <mxCell id="1" parent="0" />
        <mxCell id="-JEumUQnnkVg_jabmj1U-1" value="用户" style="rounded=0;whiteSpace=wrap;html=1;" vertex="1" parent="1">
          <mxGeometry x="320" y="280" width="120" height="60" as="geometry" />
        </mxCell>
        <mxCell id="-JEumUQnnkVg_jabmj1U-33" style="edgeStyle=orthogonalEdgeStyle;rounded=0;orthogonalLoop=1;jettySize=auto;html=1;exitX=0;exitY=0.5;exitDx=0;exitDy=0;entryX=1;entryY=0.5;entryDx=0;entryDy=0;" edge="1" parent="1" source="-JEumUQnnkVg_jabmj1U-2" target="-JEumUQnnkVg_jabmj1U-1">
          <mxGeometry relative="1" as="geometry" />
        </mxCell>
        <mxCell id="-JEumUQnnkVg_jabmj1U-2" value="店铺" style="rounded=0;whiteSpace=wrap;html=1;" vertex="1" parent="1">
          <mxGeometry x="620" y="360" width="120" height="60" as="geometry" />
        </mxCell>
        <mxCell id="-JEumUQnnkVg_jabmj1U-31" style="edgeStyle=orthogonalEdgeStyle;rounded=0;orthogonalLoop=1;jettySize=auto;html=1;exitX=0;exitY=0.5;exitDx=0;exitDy=0;entryX=1;entryY=0.5;entryDx=0;entryDy=0;" edge="1" parent="1" source="-JEumUQnnkVg_jabmj1U-3" target="-JEumUQnnkVg_jabmj1U-1">
          <mxGeometry relative="1" as="geometry" />
        </mxCell>
        <mxCell id="-JEumUQnnkVg_jabmj1U-3" value="活动用户" style="rounded=0;whiteSpace=wrap;html=1;" vertex="1" parent="1">
          <mxGeometry x="620" y="170" width="120" height="60" as="geometry" />
        </mxCell>
        <mxCell id="-JEumUQnnkVg_jabmj1U-32" style="edgeStyle=orthogonalEdgeStyle;rounded=0;orthogonalLoop=1;jettySize=auto;html=1;exitX=0;exitY=0.5;exitDx=0;exitDy=0;entryX=1;entryY=0.5;entryDx=0;entryDy=0;" edge="1" parent="1" source="-JEumUQnnkVg_jabmj1U-4" target="-JEumUQnnkVg_jabmj1U-1">
          <mxGeometry relative="1" as="geometry" />
        </mxCell>
        <mxCell id="-JEumUQnnkVg_jabmj1U-4" value="分销用户" style="rounded=0;whiteSpace=wrap;html=1;" vertex="1" parent="1">
          <mxGeometry x="620" y="265" width="120" height="60" as="geometry" />
        </mxCell>
        <mxCell id="-JEumUQnnkVg_jabmj1U-6" style="edgeStyle=orthogonalEdgeStyle;rounded=0;orthogonalLoop=1;jettySize=auto;html=1;exitX=1;exitY=0.5;exitDx=0;exitDy=0;entryX=0;entryY=0.5;entryDx=0;entryDy=0;" edge="1" parent="1" source="-JEumUQnnkVg_jabmj1U-5" target="-JEumUQnnkVg_jabmj1U-1">
          <mxGeometry relative="1" as="geometry" />
        </mxCell>
        <mxCell id="-JEumUQnnkVg_jabmj1U-5" value="权限控制" style="rounded=0;whiteSpace=wrap;html=1;fillColor=#dae8fc;strokeColor=#6c8ebf;" vertex="1" parent="1">
          <mxGeometry x="60" y="160" width="120" height="60" as="geometry" />
        </mxCell>
        <mxCell id="-JEumUQnnkVg_jabmj1U-34" style="edgeStyle=orthogonalEdgeStyle;rounded=0;orthogonalLoop=1;jettySize=auto;html=1;exitX=0;exitY=0.5;exitDx=0;exitDy=0;entryX=1;entryY=0.5;entryDx=0;entryDy=0;" edge="1" parent="1" source="-JEumUQnnkVg_jabmj1U-9" target="-JEumUQnnkVg_jabmj1U-1">
          <mxGeometry relative="1" as="geometry" />
        </mxCell>
        <mxCell id="-JEumUQnnkVg_jabmj1U-9" value="黑名单" style="rounded=0;whiteSpace=wrap;html=1;" vertex="1" parent="1">
          <mxGeometry x="620" y="450" width="120" height="60" as="geometry" />
        </mxCell>
        <mxCell id="-JEumUQnnkVg_jabmj1U-36" style="edgeStyle=orthogonalEdgeStyle;rounded=0;orthogonalLoop=1;jettySize=auto;html=1;exitX=0;exitY=0.5;exitDx=0;exitDy=0;entryX=1;entryY=0.5;entryDx=0;entryDy=0;" edge="1" parent="1" source="-JEumUQnnkVg_jabmj1U-10" target="-JEumUQnnkVg_jabmj1U-1">
          <mxGeometry relative="1" as="geometry" />
        </mxCell>
        <mxCell id="-JEumUQnnkVg_jabmj1U-10" value="子账户" style="rounded=0;whiteSpace=wrap;html=1;" vertex="1" parent="1">
          <mxGeometry x="620" y="550" width="120" height="60" as="geometry" />
        </mxCell>
        <mxCell id="-JEumUQnnkVg_jabmj1U-37" style="edgeStyle=orthogonalEdgeStyle;rounded=0;orthogonalLoop=1;jettySize=auto;html=1;exitX=0;exitY=0.5;exitDx=0;exitDy=0;entryX=1;entryY=0.5;entryDx=0;entryDy=0;" edge="1" parent="1" source="-JEumUQnnkVg_jabmj1U-11" target="-JEumUQnnkVg_jabmj1U-10">
          <mxGeometry relative="1" as="geometry" />
        </mxCell>
        <mxCell id="-JEumUQnnkVg_jabmj1U-11" value="子账户仓库权限" style="rounded=0;whiteSpace=wrap;html=1;" vertex="1" parent="1">
          <mxGeometry x="827" y="520" width="120" height="60" as="geometry" />
        </mxCell>
        <mxCell id="-JEumUQnnkVg_jabmj1U-39" style="edgeStyle=orthogonalEdgeStyle;rounded=0;orthogonalLoop=1;jettySize=auto;html=1;exitX=0;exitY=0.5;exitDx=0;exitDy=0;entryX=1;entryY=0.5;entryDx=0;entryDy=0;" edge="1" parent="1" source="-JEumUQnnkVg_jabmj1U-12" target="-JEumUQnnkVg_jabmj1U-10">
          <mxGeometry relative="1" as="geometry" />
        </mxCell>
        <mxCell id="-JEumUQnnkVg_jabmj1U-12" value="子账户登录时间" style="rounded=0;whiteSpace=wrap;html=1;" vertex="1" parent="1">
          <mxGeometry x="827" y="680" width="120" height="60" as="geometry" />
        </mxCell>
        <mxCell id="-JEumUQnnkVg_jabmj1U-42" style="edgeStyle=orthogonalEdgeStyle;rounded=0;orthogonalLoop=1;jettySize=auto;html=1;exitX=0;exitY=0.5;exitDx=0;exitDy=0;entryX=1;entryY=0.5;entryDx=0;entryDy=0;" edge="1" parent="1" source="-JEumUQnnkVg_jabmj1U-13" target="-JEumUQnnkVg_jabmj1U-40">
          <mxGeometry relative="1" as="geometry" />
        </mxCell>
        <mxCell id="-JEumUQnnkVg_jabmj1U-13" value="同步订单参数设置" style="rounded=0;whiteSpace=wrap;html=1;" vertex="1" parent="1">
          <mxGeometry x="830" y="770" width="120" height="60" as="geometry" />
        </mxCell>
        <mxCell id="-JEumUQnnkVg_jabmj1U-45" style="edgeStyle=orthogonalEdgeStyle;rounded=0;orthogonalLoop=1;jettySize=auto;html=1;exitX=1;exitY=0.5;exitDx=0;exitDy=0;entryX=0;entryY=0.5;entryDx=0;entryDy=0;" edge="1" parent="1" source="-JEumUQnnkVg_jabmj1U-16" target="-JEumUQnnkVg_jabmj1U-1">
          <mxGeometry relative="1" as="geometry" />
        </mxCell>
        <mxCell id="-JEumUQnnkVg_jabmj1U-16" value="操作指引" style="rounded=0;whiteSpace=wrap;html=1;" vertex="1" parent="1">
          <mxGeometry x="60" y="500" width="120" height="60" as="geometry" />
        </mxCell>
        <mxCell id="-JEumUQnnkVg_jabmj1U-38" style="edgeStyle=orthogonalEdgeStyle;rounded=0;orthogonalLoop=1;jettySize=auto;html=1;exitX=0;exitY=0.5;exitDx=0;exitDy=0;entryX=1;entryY=0.5;entryDx=0;entryDy=0;" edge="1" parent="1" source="-JEumUQnnkVg_jabmj1U-17" target="-JEumUQnnkVg_jabmj1U-10">
          <mxGeometry relative="1" as="geometry" />
        </mxCell>
        <mxCell id="-JEumUQnnkVg_jabmj1U-17" value="子账户店铺权限" style="rounded=0;whiteSpace=wrap;html=1;" vertex="1" parent="1">
          <mxGeometry x="827" y="600" width="120" height="60" as="geometry" />
        </mxCell>
        <mxCell id="-JEumUQnnkVg_jabmj1U-30" style="edgeStyle=orthogonalEdgeStyle;rounded=0;orthogonalLoop=1;jettySize=auto;html=1;exitX=0;exitY=0.5;exitDx=0;exitDy=0;entryX=1;entryY=0.5;entryDx=0;entryDy=0;" edge="1" parent="1" source="-JEumUQnnkVg_jabmj1U-18" target="-JEumUQnnkVg_jabmj1U-1">
          <mxGeometry relative="1" as="geometry" />
        </mxCell>
        <mxCell id="-JEumUQnnkVg_jabmj1U-18" value="微信登录" style="rounded=0;whiteSpace=wrap;html=1;" vertex="1" parent="1">
          <mxGeometry x="620" y="70" width="120" height="60" as="geometry" />
        </mxCell>
        <mxCell id="-JEumUQnnkVg_jabmj1U-48" style="edgeStyle=orthogonalEdgeStyle;rounded=0;orthogonalLoop=1;jettySize=auto;html=1;exitX=1;exitY=0.5;exitDx=0;exitDy=0;entryX=0;entryY=0.5;entryDx=0;entryDy=0;" edge="1" parent="1" source="-JEumUQnnkVg_jabmj1U-19" target="-JEumUQnnkVg_jabmj1U-1">
          <mxGeometry relative="1" as="geometry" />
        </mxCell>
        <mxCell id="-JEumUQnnkVg_jabmj1U-19" value="系统通知" style="rounded=0;whiteSpace=wrap;html=1;" vertex="1" parent="1">
          <mxGeometry x="60" y="585" width="120" height="60" as="geometry" />
        </mxCell>
        <mxCell id="-JEumUQnnkVg_jabmj1U-49" style="edgeStyle=orthogonalEdgeStyle;rounded=0;orthogonalLoop=1;jettySize=auto;html=1;exitX=1;exitY=0.5;exitDx=0;exitDy=0;entryX=0;entryY=0.5;entryDx=0;entryDy=0;" edge="1" parent="1" source="-JEumUQnnkVg_jabmj1U-20" target="-JEumUQnnkVg_jabmj1U-1">
          <mxGeometry relative="1" as="geometry" />
        </mxCell>
        <mxCell id="-JEumUQnnkVg_jabmj1U-20" value="自定义汇率" style="rounded=0;whiteSpace=wrap;html=1;" vertex="1" parent="1">
          <mxGeometry x="60" y="670" width="120" height="60" as="geometry" />
        </mxCell>
        <mxCell id="-JEumUQnnkVg_jabmj1U-44" style="edgeStyle=orthogonalEdgeStyle;rounded=0;orthogonalLoop=1;jettySize=auto;html=1;exitX=0;exitY=0.5;exitDx=0;exitDy=0;" edge="1" parent="1" source="-JEumUQnnkVg_jabmj1U-22" target="-JEumUQnnkVg_jabmj1U-40">
          <mxGeometry relative="1" as="geometry" />
        </mxCell>
        <mxCell id="-JEumUQnnkVg_jabmj1U-22" value="全局设置" style="rounded=0;whiteSpace=wrap;html=1;" vertex="1" parent="1">
          <mxGeometry x="830" y="860" width="120" height="60" as="geometry" />
        </mxCell>
        <mxCell id="-JEumUQnnkVg_jabmj1U-28" style="edgeStyle=orthogonalEdgeStyle;rounded=0;orthogonalLoop=1;jettySize=auto;html=1;exitX=1;exitY=0.5;exitDx=0;exitDy=0;entryX=0;entryY=0.5;entryDx=0;entryDy=0;" edge="1" parent="1" source="-JEumUQnnkVg_jabmj1U-23" target="-JEumUQnnkVg_jabmj1U-1">
          <mxGeometry relative="1" as="geometry" />
        </mxCell>
        <mxCell id="-JEumUQnnkVg_jabmj1U-23" value="VIP权益" style="rounded=0;whiteSpace=wrap;html=1;" vertex="1" parent="1">
          <mxGeometry x="60" y="325" width="120" height="60" as="geometry" />
        </mxCell>
        <mxCell id="-JEumUQnnkVg_jabmj1U-29" style="edgeStyle=orthogonalEdgeStyle;rounded=0;orthogonalLoop=1;jettySize=auto;html=1;exitX=1;exitY=0.5;exitDx=0;exitDy=0;entryX=0;entryY=0.5;entryDx=0;entryDy=0;" edge="1" parent="1" source="-JEumUQnnkVg_jabmj1U-25" target="-JEumUQnnkVg_jabmj1U-1">
          <mxGeometry relative="1" as="geometry" />
        </mxCell>
        <mxCell id="-JEumUQnnkVg_jabmj1U-25" value="支付" style="rounded=0;whiteSpace=wrap;html=1;" vertex="1" parent="1">
          <mxGeometry x="60" y="410" width="120" height="60" as="geometry" />
        </mxCell>
        <mxCell id="-JEumUQnnkVg_jabmj1U-41" style="edgeStyle=orthogonalEdgeStyle;rounded=0;orthogonalLoop=1;jettySize=auto;html=1;exitX=0;exitY=0.5;exitDx=0;exitDy=0;entryX=1;entryY=0.5;entryDx=0;entryDy=0;" edge="1" parent="1" source="-JEumUQnnkVg_jabmj1U-40" target="-JEumUQnnkVg_jabmj1U-1">
          <mxGeometry relative="1" as="geometry" />
        </mxCell>
        <mxCell id="-JEumUQnnkVg_jabmj1U-40" value="个性化设置" style="rounded=0;whiteSpace=wrap;html=1;" vertex="1" parent="1">
          <mxGeometry x="620" y="810" width="120" height="60" as="geometry" />
        </mxCell>
        <mxCell id="-JEumUQnnkVg_jabmj1U-52" style="edgeStyle=orthogonalEdgeStyle;rounded=0;orthogonalLoop=1;jettySize=auto;html=1;exitX=1;exitY=0.5;exitDx=0;exitDy=0;entryX=0;entryY=0.5;entryDx=0;entryDy=0;" edge="1" parent="1" source="-JEumUQnnkVg_jabmj1U-51" target="-JEumUQnnkVg_jabmj1U-1">
          <mxGeometry relative="1" as="geometry" />
        </mxCell>
        <mxCell id="-JEumUQnnkVg_jabmj1U-51" value="登录注册" style="rounded=0;whiteSpace=wrap;html=1;fillColor=#dae8fc;strokeColor=#6c8ebf;" vertex="1" parent="1">
          <mxGeometry x="60" y="80" width="120" height="60" as="geometry" />
        </mxCell>
      </root>
    </mxGraphModel>
  </diagram>
</mxfile>
